<svg width="32" height="32" viewBox="0 0 32 32" fill="none" xmlns="http://www.w3.org/2000/svg">
<g clip-path="url(#clip0_247_113)">
<path d="M28 25.3332V26.6665H4V25.3332L6.66667 22.6665V14.6665C6.66667 10.5332 9.37333 6.89317 13.3333 5.71984V5.33317C13.3333 4.62593 13.6143 3.94765 14.1144 3.44755C14.6145 2.94746 15.2928 2.6665 16 2.6665C16.7072 2.6665 17.3855 2.94746 17.8856 3.44755C18.3857 3.94765 18.6667 4.62593 18.6667 5.33317V5.71984C22.6267 6.89317 25.3333 10.5332 25.3333 14.6665V22.6665L28 25.3332ZM18.6667 27.9998C18.6667 28.7071 18.3857 29.3854 17.8856 29.8855C17.3855 30.3856 16.7072 30.6665 16 30.6665C15.2928 30.6665 14.6145 30.3856 14.1144 29.8855C13.6143 29.3854 13.3333 28.7071 13.3333 27.9998" fill="#586CA6"/>
<g filter="url(#filter0_d_247_113)">
<rect x="21.3333" y="4.44434" width="8.88889" height="8.88889" rx="4.44444" fill="#FFC443"/>
</g>
</g>
<defs>
<filter id="filter0_d_247_113" x="18.3333" y="1.44434" width="14.8889" height="14.8887" filterUnits="userSpaceOnUse" color-interpolation-filters="sRGB">
<feFlood flood-opacity="0" result="BackgroundImageFix"/>
<feColorMatrix in="SourceAlpha" type="matrix" values="0 0 0 0 0 0 0 0 0 0 0 0 0 0 0 0 0 0 127 0" result="hardAlpha"/>
<feOffset/>
<feGaussianBlur stdDeviation="1.5"/>
<feComposite in2="hardAlpha" operator="out"/>
<feColorMatrix type="matrix" values="0 0 0 0 0.3129 0 0 0 0 0.690413 0 0 0 0 0.690413 0 0 0 0.43 0"/>
<feBlend mode="multiply" in2="BackgroundImageFix" result="effect1_dropShadow_247_113"/>
<feBlend mode="normal" in="SourceGraphic" in2="effect1_dropShadow_247_113" result="shape"/>
</filter>
<clipPath id="clip0_247_113">
<rect width="32" height="32" fill="white"/>
</clipPath>
</defs>
</svg>
