<svg width="27" height="27" viewBox="0 0 27 27" fill="none" xmlns="http://www.w3.org/2000/svg">
<path d="M19.8675 12.6C19.6087 12.2625 19.2937 11.97 19.0012 11.6775C18.2475 11.0025 17.3925 10.5188 16.6725 9.81C14.9962 8.1675 14.625 5.45625 15.6937 3.375C14.625 3.63375 13.6912 4.21875 12.8925 4.86C9.97874 7.2 8.83124 11.3288 10.2037 14.8725C10.2487 14.985 10.2937 15.0975 10.2937 15.2438C10.2937 15.4913 10.125 15.7163 9.89999 15.8063C9.64124 15.9188 9.37125 15.8513 9.1575 15.6713C9.09365 15.6178 9.04025 15.5529 8.99999 15.48C7.72874 13.8713 7.52624 11.565 8.38124 9.72C6.50249 11.25 5.47874 13.8375 5.62499 16.2788C5.69249 16.8413 5.75999 17.4038 5.95124 17.9663C6.10874 18.6413 6.41249 19.3163 6.74999 19.9125C7.96499 21.8588 10.0687 23.2538 12.33 23.535C14.7375 23.8388 17.3137 23.4 19.1587 21.735C21.2175 19.8675 21.9375 16.875 20.88 14.31L20.7337 14.0175C20.4975 13.5 19.8675 12.6 19.8675 12.6ZM16.3125 19.6875C15.9975 19.9575 15.48 20.25 15.075 20.3625C13.815 20.8125 12.555 20.1825 11.8125 19.44C13.1512 19.125 13.95 18.135 14.1862 17.1338C14.3775 16.2338 14.0175 15.4913 13.8712 14.625C13.7362 13.7925 13.7587 13.0838 14.0625 12.3075C14.2762 12.735 14.5012 13.1625 14.7712 13.5C15.6375 14.625 16.9987 15.12 17.2912 16.65C17.3362 16.8075 17.3587 16.965 17.3587 17.1338C17.3925 18.0563 16.9875 19.0688 16.3125 19.6875Z" fill="#FD473B"/>
</svg>
