<svg width="32" height="32" viewBox="0 0 32 32" fill="none" xmlns="http://www.w3.org/2000/svg">
<path d="M26.5333 16.8802C26.3196 16.6369 26.2017 16.3241 26.2017 16.0002C26.2017 15.6763 26.3196 15.3635 26.5333 15.1202L28.24 13.2002C28.4281 12.9904 28.5448 12.7265 28.5736 12.4462C28.6023 12.1659 28.5416 11.8838 28.4 11.6402L25.7333 7.02685C25.5932 6.78355 25.3798 6.59069 25.1237 6.47577C24.8675 6.36085 24.5816 6.32973 24.3067 6.38685L21.8 6.89352C21.481 6.95942 21.149 6.9063 20.8665 6.74419C20.584 6.58207 20.3707 6.32216 20.2667 6.01352L19.4533 3.57352C19.3639 3.30869 19.1935 3.07867 18.9662 2.91597C18.7389 2.75328 18.4662 2.66613 18.1867 2.66685H12.8533C12.5626 2.65168 12.2748 2.73209 12.0341 2.8958C11.7933 3.05952 11.6128 3.29754 11.52 3.57352L10.7733 6.01352C10.6693 6.32216 10.456 6.58207 10.1735 6.74419C9.89101 6.9063 9.55896 6.95942 9.24 6.89352L6.66667 6.38685C6.40607 6.35003 6.1404 6.39115 5.90313 6.50504C5.66586 6.61893 5.46761 6.80049 5.33334 7.02685L2.66667 11.6402C2.52155 11.8811 2.4563 12.1616 2.48025 12.4418C2.50419 12.722 2.61611 12.9874 2.8 13.2002L4.49334 15.1202C4.7071 15.3635 4.82498 15.6763 4.82498 16.0002C4.82498 16.3241 4.7071 16.6369 4.49334 16.8802L2.8 18.8002C2.61611 19.0129 2.50419 19.2784 2.48025 19.5586C2.4563 19.8387 2.52155 20.1193 2.66667 20.3602L5.33334 24.9735C5.47347 25.2168 5.68683 25.4097 5.94301 25.5246C6.19918 25.6395 6.4851 25.6706 6.76 25.6135L9.26667 25.1069C9.58563 25.0409 9.91768 25.0941 10.2002 25.2562C10.4826 25.4183 10.696 25.6782 10.8 25.9869L11.6133 28.4269C11.7061 28.7028 11.8867 28.9408 12.1274 29.1046C12.3682 29.2683 12.6559 29.3487 12.9467 29.3335H18.28C18.5595 29.3342 18.8322 29.2471 19.0595 29.0844C19.2868 28.9217 19.4572 28.6917 19.5467 28.4269L20.36 25.9869C20.464 25.6782 20.6774 25.4183 20.9599 25.2562C21.2423 25.0941 21.5744 25.0409 21.8933 25.1069L24.4 25.6135C24.6749 25.6706 24.9608 25.6395 25.217 25.5246C25.4732 25.4097 25.6865 25.2168 25.8267 24.9735L28.4933 20.3602C28.6349 20.1166 28.6957 19.8344 28.6669 19.5542C28.6382 19.2739 28.5214 19.01 28.3333 18.8002L26.5333 16.8802ZM24.5467 18.6669L25.6133 19.8669L23.9067 22.8269L22.3333 22.5069C21.373 22.3106 20.3741 22.4737 19.5261 22.9653C18.6782 23.4568 18.0402 24.2426 17.7333 25.1735L17.2267 26.6669H13.8133L13.3333 25.1469C13.0265 24.216 12.3885 23.4302 11.5405 22.9386C10.6926 22.447 9.69363 22.2839 8.73334 22.4802L7.16 22.8002L5.42667 19.8535L6.49334 18.6535C7.14928 17.9202 7.51191 16.9708 7.51191 15.9869C7.51191 15.0029 7.14928 14.0535 6.49334 13.3202L5.42667 12.1202L7.13334 9.18685L8.70667 9.50685C9.66697 9.70315 10.6659 9.54003 11.5139 9.04845C12.3618 8.55687 12.9998 7.77106 13.3067 6.84019L13.8133 5.33352H17.2267L17.7333 6.85352C18.0402 7.7844 18.6782 8.57021 19.5261 9.06178C20.3741 9.55336 21.373 9.71648 22.3333 9.52019L23.9067 9.20019L25.6133 12.1602L24.5467 13.3602C23.8981 14.0919 23.54 15.0358 23.54 16.0135C23.54 16.9913 23.8981 17.9352 24.5467 18.6669ZM15.52 10.6669C14.4652 10.6669 13.434 10.9796 12.557 11.5657C11.6799 12.1517 10.9963 12.9847 10.5926 13.9592C10.189 14.9337 10.0834 16.0061 10.2891 17.0407C10.4949 18.0752 11.0029 19.0255 11.7488 19.7714C12.4946 20.5173 13.445 21.0253 14.4795 21.231C15.5141 21.4368 16.5864 21.3312 17.561 20.9275C18.5355 20.5239 19.3685 19.8403 19.9545 18.9632C20.5405 18.0862 20.8533 17.055 20.8533 16.0002C20.8533 14.5857 20.2914 13.2291 19.2912 12.2289C18.291 11.2288 16.9345 10.6669 15.52 10.6669ZM15.52 18.6669C14.9926 18.6669 14.477 18.5105 14.0385 18.2174C13.6 17.9244 13.2582 17.5079 13.0563 17.0207C12.8545 16.5334 12.8017 15.9972 12.9046 15.4799C13.0075 14.9627 13.2614 14.4875 13.6344 14.1146C14.0073 13.7416 14.4825 13.4877 14.9998 13.3848C15.517 13.2819 16.0532 13.3347 16.5405 13.5365C17.0278 13.7383 17.4442 14.0801 17.7373 14.5187C18.0303 14.9572 18.1867 15.4728 18.1867 16.0002C18.1867 16.7074 17.9057 17.3857 17.4056 17.8858C16.9055 18.3859 16.2272 18.6669 15.52 18.6669Z" fill="#586CA6"/>
</svg>
