<svg width="11" height="21" viewBox="0 0 11 21" fill="none" xmlns="http://www.w3.org/2000/svg">
<path d="M9.06846 10.3546L9.40777 10.006L9.06846 9.65726L0.576462 0.930255L0.576483 0.930236L0.572712 0.926442C0.549405 0.902997 0.530979 0.875163 0.5185 0.84455C0.506022 0.813941 0.499738 0.781159 0.500013 0.748107C0.500288 0.715053 0.507115 0.68238 0.5201 0.651979C0.533087 0.621577 0.551971 0.594056 0.57566 0.571006C0.59935 0.547956 0.627379 0.52983 0.658127 0.517678C0.688864 0.50553 0.72171 0.499599 0.754761 0.500228C0.787815 0.500859 0.820413 0.508037 0.850671 0.521346C0.88093 0.534658 0.908245 0.553834 0.931039 0.577769L0.931018 0.577788L0.934752 0.581626L9.93474 9.83162C9.93475 9.83162 9.93475 9.83163 9.93475 9.83163C9.98015 9.8783 10.0056 9.94084 10.0056 10.006C10.0056 10.0711 9.98015 10.1336 9.93475 10.1803C9.93475 10.1803 9.93475 10.1803 9.93474 10.1803L0.934751 19.4303L0.934731 19.4303L0.931039 19.4341C0.908241 19.4581 0.880924 19.4772 0.850667 19.4906C0.82041 19.5039 0.787813 19.511 0.754763 19.5117C0.721711 19.5123 0.688863 19.5064 0.658122 19.4942C0.627379 19.4821 0.599351 19.4639 0.575661 19.4409C0.551969 19.4178 0.533083 19.3903 0.520099 19.3599C0.507114 19.3295 0.500286 19.2968 0.500012 19.2638C0.499737 19.2307 0.50602 19.198 0.518498 19.1673C0.530978 19.1367 0.549403 19.1089 0.572708 19.0855L0.572728 19.0855L0.57646 19.0816L9.06846 10.3546Z" fill="#F9FFFF" stroke="#F9FFFF"/>
</svg>
